<svg width="36" height="36" viewBox="0 0 36 36" fill="none" xmlns="http://www.w3.org/2000/svg">
<rect x="17.998" y="0.355469" width="25" height="25" rx="3" transform="rotate(45 17.998 0.355469)" fill="#3056D3"/>
<path d="M20.9668 21.5977V23.3555H13.1855V21.8555L16.8652 17.9102C17.235 17.4987 17.5267 17.1367 17.7402 16.8242C17.9538 16.5065 18.1074 16.2227 18.2012 15.9727C18.3001 15.7174 18.3496 15.4753 18.3496 15.2461C18.3496 14.9023 18.2923 14.6081 18.1777 14.3633C18.0632 14.1133 17.8939 13.9206 17.6699 13.7852C17.4512 13.6497 17.1803 13.582 16.8574 13.582C16.5137 13.582 16.2168 13.6654 15.9668 13.832C15.722 13.9987 15.5345 14.2305 15.4043 14.5273C15.2793 14.8242 15.2168 15.1602 15.2168 15.5352H12.959C12.959 14.8581 13.1204 14.2383 13.4434 13.6758C13.7663 13.1081 14.222 12.6576 14.8105 12.3242C15.3991 11.9857 16.097 11.8164 16.9043 11.8164C17.7012 11.8164 18.373 11.9466 18.9199 12.207C19.472 12.4622 19.8887 12.832 20.1699 13.3164C20.4564 13.7956 20.5996 14.3685 20.5996 15.0352C20.5996 15.4102 20.5397 15.7773 20.4199 16.1367C20.3001 16.4909 20.1283 16.8451 19.9043 17.1992C19.6855 17.5482 19.4199 17.9023 19.1074 18.2617C18.7949 18.6211 18.4486 18.9935 18.0684 19.3789L16.0918 21.5977H20.9668Z" fill="white"/>
</svg>
