<svg width="36" height="36" viewBox="0 0 36 36" fill="none" xmlns="http://www.w3.org/2000/svg">
<rect x="18" y="0.420898" width="25" height="25" rx="3" transform="rotate(45 18 0.420898)" fill="#3056D3"/>
<path d="M15.3047 18.2412L13.5078 17.8115L14.1562 12.0459H20.5469V13.8662H16.0078L15.7266 16.3896C15.8776 16.3011 16.1068 16.2074 16.4141 16.1084C16.7214 16.0042 17.0651 15.9521 17.4453 15.9521C17.9974 15.9521 18.487 16.0381 18.9141 16.21C19.3411 16.3818 19.7031 16.6318 20 16.96C20.3021 17.2881 20.5312 17.6891 20.6875 18.1631C20.8438 18.637 20.9219 19.1735 20.9219 19.7725C20.9219 20.2777 20.8438 20.7594 20.6875 21.2178C20.5312 21.6709 20.2943 22.0771 19.9766 22.4365C19.6589 22.7907 19.2604 23.0693 18.7812 23.2725C18.3021 23.4756 17.7344 23.5771 17.0781 23.5771C16.5885 23.5771 16.1146 23.5042 15.6562 23.3584C15.2031 23.2126 14.7943 22.9964 14.4297 22.71C14.0703 22.4235 13.7812 22.0771 13.5625 21.6709C13.349 21.2594 13.237 20.7907 13.2266 20.2646H15.4609C15.4922 20.5876 15.5755 20.8662 15.7109 21.1006C15.8516 21.3298 16.0365 21.5068 16.2656 21.6318C16.4948 21.7568 16.763 21.8193 17.0703 21.8193C17.3568 21.8193 17.6016 21.7646 17.8047 21.6553C18.0078 21.5459 18.1719 21.3949 18.2969 21.2021C18.4219 21.0042 18.513 20.7751 18.5703 20.5146C18.6328 20.249 18.6641 19.9626 18.6641 19.6553C18.6641 19.348 18.6276 19.0693 18.5547 18.8193C18.4818 18.5693 18.3698 18.3532 18.2188 18.1709C18.0677 17.9886 17.875 17.848 17.6406 17.749C17.4115 17.6501 17.1432 17.6006 16.8359 17.6006C16.4193 17.6006 16.0964 17.6657 15.8672 17.7959C15.6432 17.9261 15.4557 18.0745 15.3047 18.2412Z" fill="white"/>
</svg>
