<svg width="25" height="25" viewBox="0 0 25 25" fill="none" xmlns="http://www.w3.org/2000/svg">
<circle cx="12.5" cy="12.5" r="12.5" fill="#3056D3"/>
<path d="M15.9688 16.2422V18H8.1875V16.5L11.8672 12.5547C12.237 12.1432 12.5286 11.7812 12.7422 11.4688C12.9557 11.151 13.1094 10.8672 13.2031 10.6172C13.3021 10.362 13.3516 10.1198 13.3516 9.89062C13.3516 9.54688 13.2943 9.2526 13.1797 9.00781C13.0651 8.75781 12.8958 8.5651 12.6719 8.42969C12.4531 8.29427 12.1823 8.22656 11.8594 8.22656C11.5156 8.22656 11.2188 8.3099 10.9688 8.47656C10.724 8.64323 10.5365 8.875 10.4062 9.17188C10.2812 9.46875 10.2188 9.80469 10.2188 10.1797H7.96094C7.96094 9.5026 8.1224 8.88281 8.44531 8.32031C8.76823 7.7526 9.22396 7.30208 9.8125 6.96875C10.401 6.63021 11.099 6.46094 11.9062 6.46094C12.7031 6.46094 13.375 6.59115 13.9219 6.85156C14.474 7.10677 14.8906 7.47656 15.1719 7.96094C15.4583 8.4401 15.6016 9.01302 15.6016 9.67969C15.6016 10.0547 15.5417 10.4219 15.4219 10.7812C15.3021 11.1354 15.1302 11.4896 14.9062 11.8438C14.6875 12.1927 14.4219 12.5469 14.1094 12.9062C13.7969 13.2656 13.4505 13.638 13.0703 14.0234L11.0938 16.2422H15.9688Z" fill="white"/>
</svg>
