<svg width="25" height="25" viewBox="0 0 25 25" fill="none" xmlns="http://www.w3.org/2000/svg">
<circle cx="12.5" cy="12.5" r="12.5" fill="#3056D3"/>
<path d="M10.4922 11.3359H11.6953C12.0807 11.3359 12.3984 11.2708 12.6484 11.1406C12.8984 11.0052 13.0833 10.8177 13.2031 10.5781C13.3281 10.3333 13.3906 10.0495 13.3906 9.72656C13.3906 9.4349 13.3333 9.17708 13.2188 8.95312C13.1094 8.72396 12.9401 8.54688 12.7109 8.42188C12.4818 8.29167 12.1927 8.22656 11.8438 8.22656C11.5677 8.22656 11.3125 8.28125 11.0781 8.39062C10.8438 8.5 10.6562 8.65365 10.5156 8.85156C10.375 9.04948 10.3047 9.28906 10.3047 9.57031H8.04688C8.04688 8.94531 8.21354 8.40104 8.54688 7.9375C8.88542 7.47396 9.33854 7.11198 9.90625 6.85156C10.474 6.59115 11.099 6.46094 11.7812 6.46094C12.5521 6.46094 13.2266 6.58594 13.8047 6.83594C14.3828 7.08073 14.8333 7.44271 15.1562 7.92188C15.4792 8.40104 15.6406 8.99479 15.6406 9.70312C15.6406 10.0625 15.5573 10.4115 15.3906 10.75C15.224 11.0833 14.9844 11.3854 14.6719 11.6562C14.3646 11.9219 13.9896 12.1354 13.5469 12.2969C13.1042 12.4531 12.6068 12.5312 12.0547 12.5312H10.4922V11.3359ZM10.4922 13.0469V11.8828H12.0547C12.6745 11.8828 13.2188 11.9531 13.6875 12.0938C14.1562 12.2344 14.5495 12.4375 14.8672 12.7031C15.1849 12.9635 15.4245 13.2734 15.5859 13.6328C15.7474 13.987 15.8281 14.3802 15.8281 14.8125C15.8281 15.3438 15.7266 15.8177 15.5234 16.2344C15.3203 16.6458 15.0339 16.9948 14.6641 17.2812C14.2995 17.5677 13.8724 17.7865 13.3828 17.9375C12.8932 18.0833 12.3594 18.1562 11.7812 18.1562C11.3021 18.1562 10.8307 18.0911 10.3672 17.9609C9.90885 17.8255 9.49219 17.625 9.11719 17.3594C8.7474 17.0885 8.45052 16.75 8.22656 16.3438C8.00781 15.9323 7.89844 15.4453 7.89844 14.8828H10.1562C10.1562 15.1745 10.2292 15.4349 10.375 15.6641C10.5208 15.8932 10.7214 16.0729 10.9766 16.2031C11.237 16.3333 11.526 16.3984 11.8438 16.3984C12.2031 16.3984 12.5104 16.3333 12.7656 16.2031C13.026 16.0677 13.224 15.8802 13.3594 15.6406C13.5 15.3958 13.5703 15.112 13.5703 14.7891C13.5703 14.3724 13.4948 14.0391 13.3438 13.7891C13.1927 13.5339 12.9766 13.3464 12.6953 13.2266C12.4141 13.1068 12.0807 13.0469 11.6953 13.0469H10.4922Z" fill="white"/>
</svg>
