<svg width="25" height="25" viewBox="0 0 25 25" fill="none" xmlns="http://www.w3.org/2000/svg">
<circle cx="12.5" cy="12.5" r="12.5" fill="#3056D3"/>
<path d="M10.3047 12.8203L8.50781 12.3906L9.15625 6.625H15.5469V8.44531H11.0078L10.7266 10.9688C10.8776 10.8802 11.1068 10.7865 11.4141 10.6875C11.7214 10.5833 12.0651 10.5312 12.4453 10.5312C12.9974 10.5312 13.487 10.6172 13.9141 10.7891C14.3411 10.9609 14.7031 11.2109 15 11.5391C15.3021 11.8672 15.5312 12.2682 15.6875 12.7422C15.8438 13.2161 15.9219 13.7526 15.9219 14.3516C15.9219 14.8568 15.8438 15.3385 15.6875 15.7969C15.5312 16.25 15.2943 16.6562 14.9766 17.0156C14.6589 17.3698 14.2604 17.6484 13.7812 17.8516C13.3021 18.0547 12.7344 18.1562 12.0781 18.1562C11.5885 18.1562 11.1146 18.0833 10.6562 17.9375C10.2031 17.7917 9.79427 17.5755 9.42969 17.2891C9.07031 17.0026 8.78125 16.6562 8.5625 16.25C8.34896 15.8385 8.23698 15.3698 8.22656 14.8438H10.4609C10.4922 15.1667 10.5755 15.4453 10.7109 15.6797C10.8516 15.9089 11.0365 16.0859 11.2656 16.2109C11.4948 16.3359 11.763 16.3984 12.0703 16.3984C12.3568 16.3984 12.6016 16.3438 12.8047 16.2344C13.0078 16.125 13.1719 15.974 13.2969 15.7812C13.4219 15.5833 13.513 15.3542 13.5703 15.0938C13.6328 14.8281 13.6641 14.5417 13.6641 14.2344C13.6641 13.9271 13.6276 13.6484 13.5547 13.3984C13.4818 13.1484 13.3698 12.9323 13.2188 12.75C13.0677 12.5677 12.875 12.4271 12.6406 12.3281C12.4115 12.2292 12.1432 12.1797 11.8359 12.1797C11.4193 12.1797 11.0964 12.2448 10.8672 12.375C10.6432 12.5052 10.4557 12.6536 10.3047 12.8203Z" fill="white"/>
</svg>
