<svg width="36" height="37" viewBox="0 0 36 37" fill="none" xmlns="http://www.w3.org/2000/svg">
<rect x="18" y="0.710938" width="25" height="25" rx="3" transform="rotate(45 18 0.710938)" fill="#3056D3"/>
<path d="M15.4922 17.0469H16.6953C17.0807 17.0469 17.3984 16.9818 17.6484 16.8516C17.8984 16.7161 18.0833 16.5286 18.2031 16.2891C18.3281 16.0443 18.3906 15.7604 18.3906 15.4375C18.3906 15.1458 18.3333 14.888 18.2188 14.6641C18.1094 14.4349 17.9401 14.2578 17.7109 14.1328C17.4818 14.0026 17.1927 13.9375 16.8438 13.9375C16.5677 13.9375 16.3125 13.9922 16.0781 14.1016C15.8438 14.2109 15.6562 14.3646 15.5156 14.5625C15.375 14.7604 15.3047 15 15.3047 15.2812H13.0469C13.0469 14.6562 13.2135 14.112 13.5469 13.6484C13.8854 13.1849 14.3385 12.8229 14.9062 12.5625C15.474 12.3021 16.099 12.1719 16.7812 12.1719C17.5521 12.1719 18.2266 12.2969 18.8047 12.5469C19.3828 12.7917 19.8333 13.1536 20.1562 13.6328C20.4792 14.112 20.6406 14.7057 20.6406 15.4141C20.6406 15.7734 20.5573 16.1224 20.3906 16.4609C20.224 16.7943 19.9844 17.0964 19.6719 17.3672C19.3646 17.6328 18.9896 17.8464 18.5469 18.0078C18.1042 18.1641 17.6068 18.2422 17.0547 18.2422H15.4922V17.0469ZM15.4922 18.7578V17.5938H17.0547C17.6745 17.5938 18.2188 17.6641 18.6875 17.8047C19.1562 17.9453 19.5495 18.1484 19.8672 18.4141C20.1849 18.6745 20.4245 18.9844 20.5859 19.3438C20.7474 19.6979 20.8281 20.0911 20.8281 20.5234C20.8281 21.0547 20.7266 21.5286 20.5234 21.9453C20.3203 22.3568 20.0339 22.7057 19.6641 22.9922C19.2995 23.2786 18.8724 23.4974 18.3828 23.6484C17.8932 23.7943 17.3594 23.8672 16.7812 23.8672C16.3021 23.8672 15.8307 23.8021 15.3672 23.6719C14.9089 23.5365 14.4922 23.3359 14.1172 23.0703C13.7474 22.7995 13.4505 22.4609 13.2266 22.0547C13.0078 21.6432 12.8984 21.1562 12.8984 20.5938H15.1562C15.1562 20.8854 15.2292 21.1458 15.375 21.375C15.5208 21.6042 15.7214 21.7839 15.9766 21.9141C16.237 22.0443 16.526 22.1094 16.8438 22.1094C17.2031 22.1094 17.5104 22.0443 17.7656 21.9141C18.026 21.7786 18.224 21.5911 18.3594 21.3516C18.5 21.1068 18.5703 20.8229 18.5703 20.5C18.5703 20.0833 18.4948 19.75 18.3438 19.5C18.1927 19.2448 17.9766 19.0573 17.6953 18.9375C17.4141 18.8177 17.0807 18.7578 16.6953 18.7578H15.4922Z" fill="white"/>
</svg>
